<svg width="512" height="512" viewBox="0 0 512 512" fill="none" xmlns="http://www.w3.org/2000/svg">
<circle cx="260.962" cy="310.391" r="181.609" fill="white"/>
<circle cx="260.962" cy="310.391" r="181.609" fill="url(#paint0_linear)"/>
<path d="M361.508 267.868C357.601 263.968 351.273 263.971 347.37 267.875L234.429 380.857C230.524 384.764 224.192 384.764 220.286 380.858L189.571 350.143C185.663 346.236 179.327 346.238 175.423 350.149L161.218 364.377C157.318 368.283 157.321 374.61 161.224 378.513L220.257 437.547C224.156 441.446 230.476 441.453 234.383 437.562L237.676 434.284L375.74 296.22C379.648 292.312 379.645 285.976 375.735 282.072L361.508 267.868Z" fill="#A7C024"/>
<rect x="110.858" y="100.264" width="99.5206" height="199.86" rx="8" transform="rotate(-16.0197 110.858 100.264)" fill="white" stroke="white" stroke-width="5"/>
<path d="M217.203 340.467C219.43 304.577 214.922 300.858 214.922 300.858C170.468 298.682 134.85 286.079 113.295 243.449C84.6461 186.822 114.716 87.0074 100.636 20.1283C107.852 20.1283 224.823 56.6984 273.568 142.019C309.19 204.395 281.414 262.725 270.055 277.947C259.753 291.739 244.66 299.673 244.66 299.673C247.183 329.369 243.712 343.065 243.712 343.065C242.784 353.078 216.417 352.504 217.203 340.467ZM232.973 266.329C225.779 169.017 146.666 90.8046 146.666 90.8046C146.666 90.8046 223.861 218.809 222.413 273.368C227.772 274.698 229.202 269.164 232.973 266.329Z" fill="#A7C024" stroke="white" stroke-width="5"/>
<path d="M185.929 247.064C185.917 244.89 184.923 242.881 183.201 241.553L181.064 239.903C182.388 238.278 183.513 236.526 184.429 234.676L189.471 236.682C190.635 237.145 191.955 236.577 192.418 235.413C192.881 234.249 192.313 232.929 191.148 232.466L186.104 230.459C186.705 228.488 187.09 226.442 187.246 224.349L189.938 224.619C192.102 224.836 194.204 224.06 195.707 222.488C197.209 220.916 197.891 218.781 197.577 216.63C197.263 214.478 195.999 212.627 194.11 211.55C192.221 210.474 189.984 210.33 187.973 211.157L185.494 212.175C184.751 210.23 183.796 208.383 182.639 206.649L186.89 203.291C187.873 202.515 188.04 201.088 187.264 200.105C186.487 199.122 185.06 198.954 184.077 199.731L179.827 203.088C178.408 201.561 176.832 200.204 175.112 199.031L176.677 196.856C177.946 195.091 178.325 192.881 177.715 190.794C177.105 188.707 175.597 187.049 173.576 186.245C171.556 185.442 169.321 185.61 167.444 186.708C165.568 187.806 164.325 189.671 164.035 191.826L163.674 194.508C161.603 194.175 159.523 194.076 157.466 194.204L156.682 188.832C156.501 187.591 155.349 186.733 154.109 186.914C152.87 187.095 152.011 188.247 152.192 189.487L152.976 194.856C150.964 195.32 148.999 196.008 147.112 196.92L146.002 194.458C145.108 192.476 143.384 191.044 141.272 190.528C139.159 190.013 136.97 190.49 135.263 191.838C133.557 193.186 132.586 195.206 132.598 197.38C132.61 199.555 133.604 201.564 135.326 202.892L137.463 204.541C136.139 206.166 135.014 207.919 134.098 209.769L129.056 207.762C127.892 207.299 126.572 207.868 126.109 209.032C125.798 209.813 125.952 210.663 126.438 211.279C126.676 211.581 126.995 211.826 127.378 211.978L132.423 213.985C131.822 215.957 131.436 218.003 131.281 220.095L128.589 219.825C126.425 219.608 124.322 220.385 122.82 221.956C121.318 223.528 120.636 225.663 120.95 227.815C121.131 229.056 121.628 230.196 122.378 231.146C122.929 231.844 123.617 232.439 124.417 232.894C126.306 233.971 128.543 234.114 130.554 233.288L133.033 232.269C133.776 234.214 134.731 236.061 135.888 237.795L131.637 241.153C130.654 241.93 130.486 243.356 131.263 244.34C132.04 245.323 133.466 245.49 134.45 244.714L138.7 241.356C140.119 242.883 141.695 244.24 143.415 245.413L141.85 247.589C140.581 249.354 140.202 251.563 140.812 253.65C141.422 255.737 142.93 257.395 144.95 258.199C146.971 259.003 149.206 258.834 151.083 257.737C152.959 256.639 154.202 254.773 154.492 252.618L154.852 249.937C156.924 250.27 159.004 250.369 161.061 250.24L161.845 255.613C161.904 256.021 162.069 256.388 162.308 256.69C162.794 257.305 163.586 257.651 164.417 257.53C165.657 257.349 166.516 256.197 166.335 254.957L165.551 249.588C167.562 249.125 169.528 248.436 171.415 247.524L172.525 249.986C173.418 251.968 175.143 253.4 177.255 253.916C179.367 254.431 181.557 253.954 183.264 252.606C184.97 251.259 185.941 249.239 185.929 247.064ZM178.331 249.508C177.585 249.326 176.977 248.821 176.661 248.121L174.551 243.441C174.285 242.851 173.78 242.403 173.162 242.209C172.545 242.015 171.874 242.094 171.318 242.427C165.934 245.648 159.6 246.571 153.483 245.026C152.856 244.867 152.192 244.984 151.656 245.346C151.121 245.709 150.766 246.282 150.679 246.923L149.995 252.014C149.893 252.774 149.454 253.433 148.792 253.82C148.129 254.207 147.34 254.267 146.627 253.983C145.915 253.7 145.382 253.114 145.167 252.378C144.952 251.641 145.085 250.862 145.533 250.239L148.518 246.09C148.896 245.565 149.032 244.903 148.891 244.272C148.75 243.64 148.347 243.099 147.782 242.783C145.067 241.269 142.712 239.263 140.783 236.82C138.854 234.378 137.447 231.622 136.603 228.63C136.427 228.008 135.994 227.49 135.412 227.207C134.83 226.924 134.155 226.902 133.557 227.148L128.829 229.091C128.119 229.383 127.33 229.332 126.663 228.952C125.997 228.573 125.551 227.919 125.44 227.16C125.329 226.401 125.57 225.647 126.1 225.092C126.63 224.538 127.372 224.264 128.136 224.34L133.247 224.853C133.89 224.918 134.53 224.705 135.007 224.268C135.483 223.831 135.75 223.211 135.742 222.565C135.655 216.257 138.02 210.309 142.4 205.817C142.852 205.353 143.085 204.719 143.039 204.073C143.007 203.614 142.836 203.181 142.556 202.826C142.442 202.682 142.31 202.551 142.162 202.437L138.098 199.3C137.49 198.831 137.139 198.122 137.135 197.355C137.131 196.587 137.474 195.874 138.076 195.399C138.678 194.923 139.451 194.755 140.196 194.937C140.942 195.119 141.55 195.624 141.866 196.323L143.976 201.003C144.241 201.594 144.747 202.042 145.365 202.236C145.982 202.429 146.653 202.35 147.209 202.018C152.593 198.797 158.927 197.874 165.044 199.419C165.67 199.577 166.335 199.461 166.871 199.098C167.406 198.736 167.761 198.162 167.848 197.522L168.532 192.431C168.634 191.671 169.073 191.012 169.735 190.625C170.398 190.237 171.186 190.178 171.899 190.462C172.612 190.745 173.145 191.33 173.36 192.067C173.575 192.803 173.441 193.583 172.993 194.206L170.008 198.355C169.631 198.88 169.495 199.542 169.636 200.173C169.776 200.805 170.18 201.346 170.745 201.661C173.46 203.176 175.815 205.182 177.744 207.624C179.673 210.067 181.08 212.822 181.924 215.814C182.1 216.437 182.533 216.955 183.115 217.238C183.697 217.521 184.372 217.542 184.97 217.296L189.698 215.353C190.407 215.062 191.197 215.112 191.863 215.492C192.53 215.872 192.976 216.526 193.087 217.285C193.198 218.044 192.957 218.798 192.427 219.352C191.897 219.907 191.155 220.181 190.391 220.105L185.28 219.592C184.637 219.527 183.997 219.74 183.52 220.177C183.044 220.614 182.776 221.234 182.785 221.88C182.872 228.188 180.507 234.136 176.127 238.628C175.675 239.092 175.442 239.726 175.488 240.372C175.533 241.017 175.852 241.613 176.365 242.008L180.429 245.145C181.036 245.614 181.387 246.322 181.392 247.09C181.396 247.857 181.053 248.57 180.451 249.046C179.849 249.521 179.076 249.69 178.331 249.508Z" fill="white"/>
<path d="M172.579 218.938C170.253 215.993 165.964 215.49 163.019 217.816C160.074 220.142 159.571 224.431 161.897 227.376C164.223 230.321 168.512 230.824 171.457 228.498C174.402 226.172 174.905 221.883 172.579 218.938ZM165.458 224.563C164.682 223.582 164.85 222.152 165.832 221.377C166.814 220.601 168.243 220.769 169.018 221.751C169.794 222.733 169.626 224.162 168.644 224.938C167.663 225.713 166.233 225.545 165.458 224.563Z" fill="white"/>
<path d="M148.525 225.23C149.301 226.213 150.728 226.381 151.711 225.604C152.695 224.828 152.862 223.401 152.085 222.418C151.309 221.434 149.882 221.267 148.899 222.044C147.916 222.82 147.748 224.247 148.525 225.23Z" fill="white"/>
<defs>
<linearGradient id="paint0_linear" x1="260.962" y1="128.781" x2="260.962" y2="492" gradientUnits="userSpaceOnUse">
<stop stop-color="white"/>
<stop offset="1" stop-color="white" stop-opacity="0"/>
</linearGradient>
</defs>
</svg>
