<svg width="15" height="15" viewBox="0 0 15 15" fill="none" xmlns="http://www.w3.org/2000/svg">
<g clip-path="url(#clip0)">
<path d="M8.87424 7.51533L14.715 1.67446C15.0951 1.29453 15.0951 0.680249 14.715 0.300324C14.335 -0.0796002 13.7207 -0.0796002 13.3408 0.300324L7.49993 6.14119L1.65922 0.300324C1.27911 -0.0796002 0.665003 -0.0796002 0.285078 0.300324C-0.0950259 0.680249 -0.0950259 1.29453 0.285078 1.67446L6.12579 7.51533L0.285078 13.3562C-0.0950259 13.7361 -0.0950259 14.3504 0.285078 14.7303C0.474418 14.9199 0.723371 15.0151 0.972147 15.0151C1.22092 15.0151 1.4697 14.9199 1.65922 14.7303L7.49993 8.88946L13.3408 14.7303C13.5303 14.9199 13.7791 15.0151 14.0279 15.0151C14.2767 15.0151 14.5254 14.9199 14.715 14.7303C15.0951 14.3504 15.0951 13.7361 14.715 13.3562L8.87424 7.51533Z" fill="#666"/>
</g>
<defs>
<clipPath id="clip0">
<rect width="15" height="15" fill="white"/>
</clipPath>
</defs>
</svg>
