<svg width="20" height="20" viewBox="0 0 20 20" fill="none" xmlns="http://www.w3.org/2000/svg">
<path d="M19.427 9.76873C19.1087 9.76873 18.854 10.0234 18.854 10.3417V15.554C18.854 16.9716 17.6995 18.1219 16.2861 18.1219H3.71392C2.29626 18.1219 1.14601 16.9674 1.14601 15.554V10.2568C1.14601 9.93851 0.891341 9.68384 0.573005 9.68384C0.254669 9.68384 0 9.93851 0 10.2568V15.554C0 17.604 1.66808 19.2679 3.71392 19.2679H16.2861C18.3362 19.2679 20 17.5998 20 15.554V10.3417C20 10.0276 19.7453 9.76873 19.427 9.76873Z" fill="black"/>
<path d="M9.59671 14.7177C9.70707 14.8281 9.85562 14.8875 9.99994 14.8875C10.1442 14.8875 10.2928 14.8323 10.4032 14.7177L14.0449 11.076C14.2699 10.851 14.2699 10.4902 14.0449 10.2653C13.82 10.0403 13.4592 10.0403 13.2342 10.2653L10.5729 12.9308V1.30518C10.5729 0.986847 10.3183 0.732178 9.99994 0.732178C9.6816 0.732178 9.42693 0.986847 9.42693 1.30518V12.9308L6.7614 10.2653C6.53644 10.0403 6.17566 10.0403 5.9507 10.2653C5.72574 10.4902 5.72574 10.851 5.9507 11.076L9.59671 14.7177Z" fill="black"/>
</svg>
