<svg width="20" height="19" viewBox="0 0 20 19" fill="none" xmlns="http://www.w3.org/2000/svg">
<path d="M16.6406 18.7487H3.35938C2.36859 18.7487 1.5625 17.9427 1.5625 16.9518V7.49792C1.5625 7.15277 1.8423 6.87292 2.1875 6.87292C2.5327 6.87292 2.8125 7.15277 2.8125 7.49792V16.9518C2.8125 17.2534 3.05781 17.4987 3.35938 17.4987H16.6406C16.9422 17.4987 17.1875 17.2534 17.1875 16.9518V7.49792C17.1875 7.15277 17.4673 6.87292 17.8125 6.87292C18.1577 6.87292 18.4375 7.15277 18.4375 7.49792V16.9518C18.4375 17.9426 17.6314 18.7487 16.6406 18.7487Z" fill="#a7c024"/>
<path d="M19.375 9.68518C19.215 9.68518 19.0551 9.62416 18.9331 9.5021L11.1601 1.72918C10.5204 1.08949 9.4796 1.08949 8.83991 1.72918L1.06694 9.50213C0.822881 9.74623 0.427139 9.74623 0.183076 9.50213C-0.0610254 9.25807 -0.0610254 8.86233 0.183076 8.61827L7.95605 0.845272C9.08308 -0.281757 10.9169 -0.281757 12.0439 0.845272L19.8169 8.61823C20.061 8.86233 20.061 9.25803 19.8169 9.5021C19.6949 9.62416 19.535 9.68518 19.375 9.68518Z" fill="#a7c024"/>
<path d="M12.5 18.7487H7.5C7.1548 18.7487 6.875 18.4688 6.875 18.1237V12.5768C6.875 11.4998 7.75117 10.6237 8.82812 10.6237H11.1719C12.2488 10.6237 13.125 11.4998 13.125 12.5768V18.1237C13.125 18.4688 12.8452 18.7487 12.5 18.7487ZM8.125 17.4987H11.875V12.5768C11.875 12.1891 11.5596 11.8737 11.1719 11.8737H8.82812C8.44043 11.8737 8.125 12.1891 8.125 12.5768V17.4987Z" fill="#a7c024"/>
</svg>
