<svg width="22" height="21" viewBox="0 0 22 21" fill="none" xmlns="http://www.w3.org/2000/svg">
<path d="M21.8525 12.2643L20.4782 10.6004C20.3775 10.4784 20.2309 10.3962 20.0742 10.3735C19.8092 10.3349 19.6136 10.4804 19.4041 10.6108C19.1436 10.7726 18.8833 10.9346 18.6228 11.0964C18.3574 11.2614 18.0921 11.4264 17.8267 11.5914C17.5244 11.7794 17.4316 12.1769 17.6196 12.4791C17.8074 12.7814 18.2049 12.8741 18.5072 12.6863L19.0839 12.3277C18.6052 14.1094 17.5746 15.7107 16.0991 16.9318C14.0178 18.6541 11.2634 19.1999 8.7311 18.3919C7.1572 17.8897 5.82802 17.0275 4.78049 15.829C3.80698 14.7154 3.1272 13.3464 2.81484 11.8705C2.74115 11.5223 2.39925 11.2997 2.0508 11.3734C1.70268 11.4471 1.47995 11.7891 1.55364 12.1374C2.30945 15.7082 4.84612 18.5053 8.33918 19.62C9.23984 19.9074 10.1638 20.048 11.0825 20.048C13.1753 20.048 15.2383 19.3172 16.9208 17.9249C18.6507 16.4935 19.8452 14.6017 20.3723 12.4964L20.8585 13.0852C20.9861 13.2397 21.1702 13.3194 21.3559 13.3194C21.5005 13.3194 21.6459 13.271 21.7661 13.1719C22.0403 12.9451 22.0791 12.5389 21.8525 12.2643Z" fill="red"/>
<path d="M1.5675 9.5436C1.77412 9.74401 2.11266 9.78497 2.35906 9.63189L4.17348 8.50396C4.47578 8.31597 4.56843 7.91851 4.38061 7.61622C4.19262 7.31393 3.79516 7.22128 3.49287 7.4091L2.89819 7.77886C3.30991 6.16468 4.16711 4.71247 5.42059 3.52395C6.53442 2.46752 7.90707 1.74981 9.38999 1.44836C10.8736 1.14674 12.4025 1.27548 13.8114 1.82047C15.2369 2.37202 16.4399 3.23441 17.387 4.38366C18.2723 5.45788 18.896 6.75886 19.1907 8.14594C19.2647 8.49406 19.6072 8.71629 19.9553 8.64227C20.3034 8.56824 20.5256 8.22601 20.4516 7.87789C20.1141 6.28889 19.3984 4.79723 18.3819 3.5639C17.2922 2.2416 15.911 1.25047 14.2765 0.618189C12.6373 -0.0159362 10.8588 -0.165655 9.13319 0.184976C7.41343 0.534769 5.82291 1.36578 4.53352 2.58854C3.60767 3.46655 2.86462 4.48269 2.32482 5.60894C2.02018 6.24458 1.78469 6.90656 1.61919 7.58836L1.1415 7.00996C0.914741 6.73553 0.508552 6.69675 0.234122 6.92352C-0.0403072 7.15011 -0.0790798 7.55647 0.147513 7.83089L1.52184 9.49476C1.52436 9.49778 1.52721 9.50047 1.52973 9.50349C1.54182 9.51759 1.5544 9.53085 1.5675 9.5436Z" fill="red"/>
<line x1="21.4596" y1="0.471338" x2="1.45962" y2="20.4713" stroke="red" stroke-width="1.3" stroke-linejoin="round"/>
</svg>
