<svg width="22" height="22" viewBox="0 0 22 22" fill="none" xmlns="http://www.w3.org/2000/svg">
<path d="M21.8525 13.2526L20.4782 11.5887C20.3775 11.4667 20.2309 11.3845 20.0742 11.3618C19.8092 11.3232 19.6136 11.4687 19.4041 11.5991C19.1436 11.7609 18.8833 11.9229 18.6228 12.0847C18.3574 12.2497 18.0921 12.4147 17.8267 12.5797C17.5244 12.7677 17.4316 13.1651 17.6196 13.4674C17.8074 13.7697 18.2049 13.8624 18.5072 13.6746L19.0839 13.316C18.6052 15.0977 17.5746 16.699 16.0991 17.9201C14.0178 19.6423 11.2634 20.1882 8.7311 19.3802C7.1572 18.878 5.82802 18.0157 4.78049 16.8173C3.80698 15.7037 3.1272 14.3347 2.81484 12.8588C2.74115 12.5105 2.39925 12.288 2.0508 12.3617C1.70268 12.4353 1.47995 12.7774 1.55364 13.1257C2.30945 16.6965 4.84612 19.4936 8.33918 20.6083C9.23984 20.8957 10.1638 21.0363 11.0825 21.0363C13.1753 21.0363 15.2383 20.3055 16.9208 18.9132C18.6507 17.4818 19.8452 15.59 20.3723 13.4847L20.8585 14.0735C20.9861 14.2279 21.1702 14.3077 21.3559 14.3077C21.5005 14.3077 21.6459 14.2593 21.7661 14.1601C22.0403 13.9334 22.0791 13.5272 21.8525 13.2526Z" fill="black"/>
<path d="M1.5675 10.5319C1.77412 10.7323 2.11266 10.7732 2.35906 10.6202L4.17348 9.49224C4.47578 9.30425 4.56843 8.90679 4.38061 8.6045C4.19262 8.30221 3.79516 8.20956 3.49287 8.39738L2.89819 8.76714C3.30991 7.15296 4.16711 5.70075 5.42059 4.51223C6.53442 3.4558 7.90707 2.73809 9.38999 2.43664C10.8736 2.13502 12.4025 2.26376 13.8114 2.80876C15.2369 3.3603 16.4399 4.2227 17.387 5.37194C18.2723 6.44616 18.896 7.74714 19.1907 9.13422C19.2647 9.48234 19.6072 9.70457 19.9553 9.63055C20.3034 9.55653 20.5256 9.21429 20.4516 8.86617C20.1141 7.27717 19.3984 5.78552 18.3819 4.55218C17.2922 3.22988 15.911 2.23875 14.2765 1.60647C12.6373 0.972345 10.8588 0.822626 9.13319 1.17326C7.41343 1.52305 5.82291 2.35406 4.53352 3.57682C3.60767 4.45483 2.86462 5.47097 2.32482 6.59722C2.02018 7.23286 1.78469 7.89484 1.61919 8.57664L1.1415 7.99824C0.914741 7.72381 0.508552 7.68504 0.234122 7.9118C-0.0403072 8.13839 -0.0790798 8.54475 0.147513 8.81918L1.52184 10.483C1.52436 10.4861 1.52721 10.4887 1.52973 10.4918C1.54182 10.5059 1.5544 10.5191 1.5675 10.5319Z" fill="black"/>
</svg>
