<svg width="21" height="21" viewBox="0 0 21 21" fill="none" xmlns="http://www.w3.org/2000/svg">
<g clip-path="url(#clip0)">
<path d="M20.8384 7.15825C15.5516 0.483165 5.45758 0.471598 0.161639 7.15825C-0.0948315 7.48203 -0.0401987 7.95248 0.28362 8.20891C0.607438 8.46534 1.07781 8.41075 1.33428 8.08693C6.02281 2.16718 14.97 2.15812 19.6658 8.08693C19.9224 8.41099 20.3928 8.46517 20.7165 8.20891C21.0402 7.9524 21.0948 7.48203 20.8384 7.15825Z" fill="#a7c024"/>
<path d="M3.58365 9.86282C3.3271 10.1866 3.38157 10.657 3.7053 10.9135C4.02916 11.1701 4.49949 11.1155 4.75596 10.7918C7.69543 7.08241 13.2991 7.0756 16.244 10.7918C16.5006 11.1156 16.971 11.17 17.2947 10.9135C17.6184 10.6569 17.6729 10.1866 17.4163 9.86282C13.8779 5.39744 7.12752 5.39063 3.58365 9.86282Z" fill="#a7c024"/>
<path d="M7.00379 12.5672C6.74744 12.8911 6.80215 13.3614 7.12605 13.6178C7.44995 13.8742 7.92032 13.8194 8.17667 13.4955C9.36305 11.9966 11.635 11.9941 12.8234 13.4955C13.0798 13.8194 13.5501 13.8742 13.874 13.6178C14.1979 13.3614 14.2526 12.8911 13.9963 12.5672C12.2114 10.3121 8.79158 10.3085 7.00379 12.5672Z" fill="#a7c024"/>
<path d="M10.5002 18.8524C11.5409 18.8524 12.3846 18.0087 12.3846 16.968C12.3846 15.9272 11.5409 15.0835 10.5002 15.0835C9.45942 15.0835 8.61572 15.9272 8.61572 16.968C8.61572 18.0087 9.45942 18.8524 10.5002 18.8524Z" fill="#a7c024"/>
</g>
<defs>
<clipPath id="clip0">
<rect width="21" height="21" fill="white"/>
</clipPath>
</defs>
</svg>
